HIERARCHY
ROOT hip
{
  OFFSET 0 0 0
  CHANNELS 6 Xposition Yposition Zposition Zrotation Yrotation Xrotation
  JOINT abdomen
  {
    OFFSET 0 20.6881 -0.73152
    CHANNELS 3 Zrotation Xrotation Yrotation
    JOINT chest
    {
      OFFSET 0 11.7043 -0.48768
      CHANNELS 3 Zrotation Xrotation Yrotation
      JOINT neck
      {
        OFFSET 0 22.1894 -2.19456
        CHANNELS 3 Zrotation Xrotation Yrotation
        JOINT head
        {
          OFFSET -0.24384 7.07133 1.2192
          CHANNELS 3 Zrotation Xrotation Yrotation
          JOINT leftEye
          {
            OFFSET 4.14528 8.04674 8.04672
            CHANNELS 3 Zrotation Xrotation Yrotation
            End Site
            {
              OFFSET 1 0 0
            }
          }
          JOINT rightEye
          {
            OFFSET -3.6576 8.04674 8.04672
            CHANNELS 3 Zrotation Xrotation Yrotation
            End Site
            {
              OFFSET 1 0 0
            }
          }
        }
      }
      JOINT rCollar
      {
        OFFSET -2.68224 19.2634 -4.8768
        CHANNELS 3 Zrotation Xrotation Yrotation
        JOINT rShldr
        {
          OFFSET -8.77824 -1.95073 1.46304
          CHANNELS 3 Zrotation Xrotation Yrotation
          JOINT rForeArm
          {
            OFFSET -28.1742 -1.7115 0.48768
            CHANNELS 3 Zrotation Xrotation Yrotation
            JOINT rHand
            {
              OFFSET -22.5879 0.773209 7.07136
              CHANNELS 3 Zrotation Xrotation Yrotation
              JOINT rThumb1
              {
                OFFSET -1.2192 -0.487915 3.41376
                CHANNELS 3 Zrotation Xrotation Yrotation
                JOINT rThumb2
                {
                  OFFSET -3.37035 -0.52449 3.41376
                  CHANNELS 3 Zrotation Xrotation Yrotation
                  End Site
                  {
                    OFFSET -1.78271 -1.18214 1.43049
                  }
                }
              }
              JOINT rIndex1
              {
                OFFSET -7.75947 0.938293 5.60832
                CHANNELS 3 Zrotation Xrotation Yrotation
                JOINT rIndex2
                {
                  OFFSET -2.54057 -0.884171 1.56538
                  CHANNELS 3 Zrotation Xrotation Yrotation
                  End Site
                  {
                    OFFSET -1.62519 -0.234802 1.16502
                  }
                }
              }
              JOINT rMid1
              {
                OFFSET -8.24714 1.18213 3.41376
                CHANNELS 3 Zrotation Xrotation Yrotation
                JOINT rMid2
                {
                  OFFSET -3.10165 -0.590103 1.0647
                  CHANNELS 3 Zrotation Xrotation Yrotation
                  End Site
                  {
                    OFFSET -2.48547 -0.328903 0.83742
                  }
                }
              }
              JOINT rRing1
              {
                OFFSET -8.82822 0.546677 1.51678
                CHANNELS 3 Zrotation Xrotation Yrotation
                JOINT rRing2
                {
                  OFFSET -2.60934 -0.819778 -0.0198488
                  CHANNELS 3 Zrotation Xrotation Yrotation
                  End Site
                  {
                    OFFSET -2.33842 -0.294052 0.168128
                  }
                }
              }
              JOINT rPinky1
              {
                OFFSET -8.27202 -0.0477905 -0.4584
                CHANNELS 3 Zrotation Xrotation Yrotation
                JOINT rPinky2
                {
                  OFFSET -1.82734 -0.647385 -0.700984
                  CHANNELS 3 Zrotation Xrotation Yrotation
                  End Site
                  {
                    OFFSET -1.69225 -0.51767 -0.607171
                  }
                }
              }
            }
          }
        }
      }
      JOINT lCollar
      {
        OFFSET 2.68224 19.2634 -4.8768
        CHANNELS 3 Zrotation Xrotation Yrotation
        JOINT lShldr
        {
          OFFSET 8.77824 -1.95073 1.46304
          CHANNELS 3 Zrotation Xrotation Yrotation
          JOINT lForeArm
          {
            OFFSET 28.1742 -1.7115 0.48768
            CHANNELS 3 Zrotation Xrotation Yrotation
            JOINT lHand
            {
              OFFSET 22.5879 0.773209 7.07136
              CHANNELS 3 Zrotation Xrotation Yrotation
              JOINT lThumb1
              {
                OFFSET 1.2192 -0.487915 3.41376
                CHANNELS 3 Zrotation Xrotation Yrotation
                JOINT lThumb2
                {
                  OFFSET 3.37035 -0.52449 3.41376
                  CHANNELS 3 Zrotation Xrotation Yrotation
                  End Site
                  {
                    OFFSET 1.78271 -1.18214 1.43049
                  }
                }
              }
              JOINT lIndex1
              {
                OFFSET 7.75947 0.938293 5.60832
                CHANNELS 3 Zrotation Xrotation Yrotation
                JOINT lIndex2
                {
                  OFFSET 2.54057 -0.884171 1.56538
                  CHANNELS 3 Zrotation Xrotation Yrotation
                  End Site
                  {
                    OFFSET 1.62519 -0.234802 1.16502
                  }
                }
              }
              JOINT lMid1
              {
                OFFSET 8.24714 1.18213 3.41376
                CHANNELS 3 Zrotation Xrotation Yrotation
                JOINT lMid2
                {
                  OFFSET 3.10165 -0.590103 1.0647
                  CHANNELS 3 Zrotation Xrotation Yrotation
                  End Site
                  {
                    OFFSET 2.48547 -0.328903 0.83742
                  }
                }
              }
              JOINT lRing1
              {
                OFFSET 8.82822 0.546677 1.51678
                CHANNELS 3 Zrotation Xrotation Yrotation
                JOINT lRing2
                {
                  OFFSET 2.60934 -0.819778 -0.0198488
                  CHANNELS 3 Zrotation Xrotation Yrotation
                  End Site
                  {
                    OFFSET 2.33842 -0.294052 0.168128
                  }
                }
              }
              JOINT lPinky1
              {
                OFFSET 8.27202 -0.0477905 -0.4584
                CHANNELS 3 Zrotation Xrotation Yrotation
                JOINT lPinky2
                {
                  OFFSET 1.82734 -0.647385 -0.700984
                  CHANNELS 3 Zrotation Xrotation Yrotation
                  End Site
                  {
                    OFFSET 1.69225 -0.51767 -0.607171
                  }
                }
              }
            }
          }
        }
      }
    }
  }
  JOINT rButtock
  {
    OFFSET -8.77824 4.35084 1.2192
    CHANNELS 3 Zrotation Xrotation Yrotation
    JOINT rThigh
    {
      OFFSET 0 -1.70687 -2.19456
      CHANNELS 3 Zrotation Xrotation Yrotation
      JOINT rShin
      {
        OFFSET 0 -36.8199 0.73152
        CHANNELS 3 Zrotation Xrotation Yrotation
        JOINT rFoot
        {
          OFFSET 0.73152 -45.1104 -5.12064
          CHANNELS 3 Zrotation Xrotation Yrotation
          End Site
          {
            OFFSET -1.1221 -3.69964 12.103
          }
        }
      }
    }
  }
  JOINT lButtock
  {
    OFFSET 8.77824 4.35084 1.2192
    CHANNELS 3 Zrotation Xrotation Yrotation
    JOINT lThigh
    {
      OFFSET 0 -1.70687 -2.19456
      CHANNELS 3 Zrotation Xrotation Yrotation
      JOINT lShin
      {
        OFFSET 0 -36.8199 0.73152
        CHANNELS 3 Zrotation Xrotation Yrotation
        JOINT lFoot
        {
          OFFSET -0.73152 -45.1104 -5.12064
          CHANNELS 3 Zrotation Xrotation Yrotation
          End Site
          {
            OFFSET 1.1221 -3.69964 12.103
          }
        }
      }
    }
  }
}
MOTION
Frames:	5
Frame Time:	0.03333
9.1437 44.7959 7.8794 -152.040601 83.98472 -146.005204 -1.228917 17.184639 -0.0 -1.567213 -18.516885 22.102987 7.927546 23.414308 90.098138 -29.289571 3.985771 -50.180719 11.770902 3.227418 30.570605 -34.083732 -5.644008 18.271068 -143.795775 27.34795 147.760831 -54.510723 42.894012 17.589532 3.413634 4.291214 -145.424925 162.73302 -30.499856 140.976142 -81.920411 46.145113 45.791109 -62.970491 -3.433113 30.161429 -164.041631 -42.990229 116.202265 -173.136308 -5.087044 100.585263 -158.337925 -3.432988 149.068115 -26.582348 73.072454 22.481739 -83.663034 -81.816537 -95.659529 12.741827 29.244317 -9.812218 -72.943857 78.4603 107.052507 0.942298 3.623193 19.322321 14.851342 42.744359 -15.450966 -17.263461 20.897049 -55.091175 155.1461 -72.104666 46.171936 5.873132 -18.946824 3.423102 171.716839 -12.4231 -89.024985 93.319283 4.049603 -34.737423 31.806805 36.260681 -30.658339 9.728447 15.752631 12.816818 7.510368 11.01543 -1.365942 161.473755 23.601281 -132.238451 139.069511 10.491122 -170.81313 -33.467501 31.782806 9.17671 -12.849676 -12.368345 -6.96593 -104.225775 68.847504 95.242342 -49.394892 15.837744 -34.489548 24.22046 -57.056955 28.192884 133.26941 58.104458 117.679435 51.881485 -34.449782 125.989593 0.313817 5.985217 -3.006873 99.119671 -55.348898 -173.716357 109.189756 -18.28571 17.549776 -30.542713 19.484782 -99.868269
9.2708 44.750499999999995 7.3099 -152.38126 83.714922 -146.451061 0.576476 13.38948 -139.178077 11.915286 8.731649 160.129678 -4.399446 15.325191 5.57025 6.751959 -22.218112 35.746386 7.543914 2.760496 40.151227 -36.444975 -6.440151 19.395219 -154.215622 -4.515547 157.527837 130.586315 57.638598 -159.036484 134.478698 0.566709 -16.593421 -165.747176 52.470465 140.067477 -5.678345 7.727266 -6.99373 14.47202 -20.230807 17.663867 -48.872032 38.519699 43.383714 -128.453723 11.961349 114.628894 -28.581485 55.842842 20.885802 -58.116856 53.884553 36.261459 -138.627381 37.030288 155.125613 4.817777 0.082976 -0.818878 -10.075594 -26.912569 4.926715 -132.365982 19.417975 -139.195763 153.29568 14.232692 -157.607406 45.87609 19.388955 -11.044896 -165.497064 32.409244 54.794265 14.801585 11.463722 -0.416415 -18.283274 -16.800975 -1.179972 6.472913 2.841126 15.312409 -30.960419 -40.240761 4.30251 174.501156 -11.975781 -97.989842 152.996863 17.700901 -136.32856 8.309489 52.690898 -10.09108 138.694347 10.553198 -169.057653 43.718839 86.331663 -75.776065 127.690169 5.840442 153.015847 106.664162 -73.512669 131.837288 -0.906417 1.251356 1.185096 -71.097684 -40.422711 -77.481489 -145.456314 66.44914 -106.662424 -34.103206 13.078211 -111.710543 -7.76621 6.935175 -8.798514 107.898671 -47.687083 -76.567864 -136.606287 -69.942124 -28.317808 -176.030891 -57.399453 -92.705549
9.3458 44.661899999999996 6.771599999999999 -159.01782 81.936419 -153.01589 -0.828531 18.532759 0.0 -1.969293 -19.197851 20.726389 -13.000724 31.645697 -108.049483 32.264258 27.001191 141.167406 10.850565 4.40303 44.073622 -37.167265 -6.039523 17.834302 -11.138697 33.798016 15.786987 -71.935983 30.952308 105.272032 53.690264 -3.380036 174.845057 -169.725017 49.043632 142.383274 3.659047 -7.249942 -9.604279 -31.044849 8.349056 38.520388 -175.727266 -53.097934 115.599238 -167.064124 8.006583 108.07027 4.293337 -24.953245 -11.065296 19.330846 -19.120557 16.579706 -150.179666 -3.34538 172.798819 -158.791989 -28.399486 -178.793774 -8.006837 -12.527953 11.486694 14.126266 -19.419965 -6.52058 161.591996 -46.665551 -169.530221 37.790865 -24.322742 39.825427 -25.739487 -54.520671 129.138777 165.940621 19.897612 -138.720234 -78.711448 -49.372473 -31.14655 57.656949 38.327193 -13.192618 -15.343164 -14.611607 4.070157 -3.704451 -13.524126 -4.143953 161.797009 -7.13225 -140.7185 3.197654 36.567382 -12.670315 136.469073 21.450727 -165.144059 -27.165841 -1.322082 11.190169 124.263414 -8.03127 147.475492 -20.19708 -58.550115 -13.438228 21.862955 6.850834 17.064919 -99.279084 -23.615618 70.223754 112.10607 -45.139761 -21.540018 162.817669 -44.861355 73.949039 -124.504538 65.372519 -31.431831 -163.003112 -7.453376 2.615418 -164.456755 66.678255 -48.435692 -106.148238 -18.480582 -174.066518
9.3582 44.455299999999994 6.257300000000001 -161.710522 81.099406 -155.597942 -0.660616 13.973869 -177.266252 2.880645 14.021237 -162.519724 7.960517 26.366678 98.515932 -32.241486 9.030438 -60.098033 14.820891 7.149008 51.309093 -35.10102 -6.387596 20.01176 -154.920249 -5.260731 158.408805 -34.46895 5.0578 -15.48494 -67.676756 41.422795 -101.042359 77.387988 -65.96924 62.26052 -92.937591 46.679177 50.501718 24.341347 -50.204534 27.97637 -159.695144 -31.602099 121.225359 -138.530818 26.999964 94.411299 -167.1831 -47.83153 156.491655 11.210632 34.042366 -3.51334 -137.729529 37.716645 156.016502 3.474092 23.884873 2.249129 -16.778687 -37.334266 -2.859045 0.217213 -33.743789 -18.868096 -2.534708 -43.639239 7.734609 -60.668164 27.234433 16.378774 -151.682917 43.033737 -50.409529 159.210993 33.766347 -133.377475 174.892795 -11.056199 -90.39411 -31.45583 -70.137539 -34.592865 5.084676 16.762838 -5.997842 73.567944 52.426331 -42.057704 161.887153 -7.303824 -139.990291 -13.303684 1.310461 -5.39391 127.933377 39.076202 -154.674848 133.497922 -21.011976 168.273651 125.882787 5.607649 151.358961 123.723968 -44.234421 152.005604 -0.143807 3.94771 2.087896 -76.915717 -40.054259 -0.0 118.533915 23.504371 80.372074 -124.427494 15.309379 -146.822642 -172.718976 71.11081 0.0 -147.665883 -14.02081 69.056389 110.788543 12.961093 6.093183 -31.1899 20.765727 -99.02473
9.364 44.2816 5.7679 -162.591588 80.899616 -156.34465 -0.810542 14.043604 -180.0 2.026442 13.844581 -160.415176 6.937397 22.60728 79.136552 -29.725136 -1.897527 -43.477672 19.656632 9.904634 53.146311 -33.770472 -5.960511 19.464875 -162.865461 -48.710229 164.329059 120.278021 49.718854 -117.266929 -7.017341 52.169649 120.115525 -3.887358 29.158321 -1.582109 -8.2974 4.692055 -6.467513 -90.993036 -2.932634 76.471889 -10.123917 13.464428 5.458511 -150.259731 -12.942376 120.154216 -166.138697 -26.170501 154.780158 11.103386 16.81546 -14.54631 -148.461941 -2.40829 174.839691 -159.201257 -14.706713 -177.736654 -46.924286 75.555969 79.414426 -153.433657 2.564361 -152.011437 157.555362 -3.598706 -161.767081 113.636407 -80.082407 79.47787 68.613522 53.147696 86.378961 -174.629866 -38.131377 -144.532221 98.841334 38.672294 -55.243892 -23.609064 -25.758035 -35.463011 152.750244 -32.120929 -125.245308 -179.542112 -58.175782 -102.368817 1.485715 -0.512437 -4.222976 125.700496 66.950478 -109.778591 63.840248 63.652874 -86.478414 4.589841 -41.614102 36.661227 0.811056 75.532547 -53.454381 171.966775 60.59218 113.290579 -5.729488 4.080917 -1.459208 -70.331942 -45.150298 -64.256154 167.626382 67.959715 -53.923519 -74.299991 -30.413197 -139.710423 -127.375242 67.123032 -30.730038 -161.255338 -8.418053 66.664779 112.542716 37.936985 165.201672 30.761206 -5.822274 89.039949
